PathFileType	4	(X/Y/Z)	C:/Users/opensim2020/Desktop/walking_exp_matlab/subject02_walking16_run.trc																																																																																																																																																							
DataRate	CameraRate	NumFrames	NumMarkers	Units	OrigDataRate	OrigDataStartFrame	OrigNumFrames																																																																																																																																																			
100	100	6	51	mm	100	153	124																																																																																																																																																			
Frame#	Time	RTOE			LSHO			LELB			RELB			RFIN			LTHI			LKNE			RWRB			RUPA			LTIB			RASI			LANK			LTOE			RSHO			RWRA			RFRM			LASI			STRN			LFHD			RTHI			RFHD			LWRB			LFIN			LUPA			RKNE			RBHD			LFRM			C7			LWRA			RTIB			CLAV			LHEE			RANK			LBHD			RBAK			RHEE			T10			LPSI			RPSI			*39			*40			*41			*42			*43			*44			*45			*46			*47			*48			*49			*50		
		X1	Y1	Z1	X2	Y2	Z2	X3	Y3	Z3	X4	Y4	Z4	X5	Y5	Z5	X6	Y6	Z6	X7	Y7	Z7	X8	Y8	Z8	X9	Y9	Z9	X10	Y10	Z10	X11	Y11	Z11	X12	Y12	Z12	X13	Y13	Z13	X14	Y14	Z14	X15	Y15	Z15	X16	Y16	Z16	X17	Y17	Z17	X18	Y18	Z18	X19	Y19	Z19	X20	Y20	Z20	X21	Y21	Z21	X22	Y22	Z22	X23	Y23	Z23	X24	Y24	Z24	X25	Y25	Z25	X26	Y26	Z26	X27	Y27	Z27	X28	Y28	Z28	X29	Y29	Z29	X30	Y30	Z30	X31	Y31	Z31	X32	Y32	Z32	X33	Y33	Z33	X34	Y34	Z34	X35	Y35	Z35	X36	Y36	Z36	X37	Y37	Z37	X38	Y38	Z38	X39	Y39	Z39	X40	Y40	Z40	X41	Y41	Z41	X42	Y42	Z42	X43	Y43	Z43	X44	Y44	Z44	X45	Y45	Z45	X46	Y46	Z46	X47	Y47	Z47	X48	Y48	Z48	X49	Y49	Z49	X50	Y50	Z50	X51	Y51	Z51
																																																																																																																																																										
1	0	-2019.88733	29.63113	36.78139	-2061.66504	1438.41382	-177.55025	-1986.9032	1176.84119	-384.13483	-2348.57349	1146.50659	262.14044	-2167.10889	907.30188	261.62991	-2280.48413	611.00439	-210.87492	-2361.39404	440.40869	-174.79163	-2233.53687	920.59174	259.06955	-2290.73999	1278.50366	227.87563	-2548.2644	413.01096	-177.69077	-2157.78027	939.39459	76.93674	-2744.93115	324.60913	-151.88031	-2801.04932	172.41919	-144.91344	-2154.41455	1413.45435	158.10698	-2198.6853	954.42456	228.24953	-2288.06738	1038.79932	265.87921	-2133.79932	928.77252	-164.15117	-2051.95752	1200.8634	-14.76318	-2063.57568	1678.56104	-78.96722	-2176.39502	648.3562	164.13055	-2055.6709	1668.38318	66.24109	-1934.48352	915.54022	-346.24814	-1936.19836	852.03638	-320.97076	-2023.19275	1304.48267	-319.19406	-2099.03491	455.24173	119.36073	-2176.17163	1557.93042	60.87778	-1954.0697	1037.25049	-372.60074	-2181.54614	1466.05518	-37.16805	-1970.04907	919.8797	-299.20541	-2154.3252	276.92282	83.90097	-2056.10962	1384.41846	-11.13119	-2758.61108	354.57797	-97.37625	-2169.34741	89.737	10.30445	-2171.02295	1574.07898	-81.66186	-2281.97192	1331.33838	-3.75212	-2191.64844	40.85037	-58.25241	-2294.09912	1237.84241	-71.4521	-2323.18701	1029.51208	-115.46824	-2345.48047	1037.8844	0.80291	NaN	NaN	NaN	2845.9541	1034.30164	-3357.08472	NaN	NaN	NaN	NaN	NaN	NaN	NaN	NaN	NaN	NaN	NaN	NaN	NaN	NaN	NaN	NaN	NaN	NaN	NaN	NaN	NaN	NaN	NaN	NaN	-2176.56958	1720.23401	10.49185	NaN	NaN	NaN
2	0.01	-2019.20313	25.10073	38.48108	-2027.65369	1430.42224	-174.70288	-1959.8335	1171.53516	-388.73032	-2301.02905	1127.00317	266.59741	-2105.12646	901.6106	259.07547	-2230.64429	600.62518	-208.93614	-2301.7229	430.50027	-173.60388	-2172.04907	910.93787	257.7821	-2250.80029	1260.96143	234.77936	-2486.9231	410.02036	-176.97972	-2126.10864	935.05872	82.75552	-2687.98022	333.1925	-150.56862	-2745.09497	182.41179	-149.56552	-2121.26294	1406.84912	163.18307	-2139.91309	946.98328	226.87141	-2233.65918	1023.32678	267.00797	-2098.11475	925.68555	-160.47549	-2019.77747	1194.32361	-11.53942	-2030.35876	1673.23572	-76.97576	-2150.63916	637.349	162.71698	-2021.93347	1663.56531	68.24208	-1917.00781	906.81995	-385.81348	-1921.44629	841.20233	-369.96112	-1990.19446	1298.23694	-317.97208	-2085.22754	440.29523	115.01399	-2142.19507	1552.74133	63.662	-1933.29968	1031.04077	-397.03772	-2148.23511	1461.32043	-33.88755	-1953.85608	906.32776	-339.47968	-2141.69653	260.70398	82.85985	-2024.12085	1378.05054	-8.44862	-2701.26367	362.15405	-94.5137	-2163.5791	77.92546	5.85704	-2136.3728	1567.61926	-78.67941	-2250.17163	1325.54822	0.9989	-2191.14917	30.7	-64.47149	-2261.49854	1233.0979	-67.57652	-2288.30029	1022.68951	-113.11726	-2312.89648	1030.34766	1.64217	NaN	NaN	NaN	2845.94727	1034.43457	-3357.01245	NaN	NaN	NaN	NaN	NaN	NaN	NaN	NaN	NaN	NaN	NaN	NaN	NaN	NaN	NaN	NaN	NaN	NaN	NaN	NaN	NaN	NaN	NaN	NaN	-2143.33325	1714.63257	12.89792	NaN	NaN	NaN
3	0.02	-2017.20337	24.88124	33.63492	-1993.63477	1422.21704	-172.17043	-1935.16846	1169.5177	-398.2688	-2251.80347	1108.97705	271.45547	-2040.38208	899.75769	255.59277	-2179.09375	589.0976	-207.0929	-2240.75854	421.25369	-173.55186	-2107.58569	903.54822	255.63678	-2208.53369	1245.45691	241.51514	-2423.82227	406.33252	-176.29204	-2095.26782	930.40582	88.15995	-2628.14063	339.8515	-148.33702	-2682.75708	189.27312	-154.97203	-2087.67358	1400.69885	168.23537	-2078.3042	942.52509	224.45522	-2177.10962	1010.28949	268.45419	-2063.08691	920.91272	-156.87015	-1987.51587	1186.94617	-8.1378	-1996.8927	1667.88745	-75.49809	-2127.33057	625.57574	160.22781	-1988.77893	1657.95911	69.94933	-1900.2417	905.74725	-423.63422	-1907.74316	838.74731	-415.59805	-1961.65051	1292.97302	-319.55167	-2070.10156	425.59717	107.95802	-2108.1145	1547.44226	65.78667	-1913.53259	1031.04492	-422.02637	-2114.4126	1456.16602	-30.64132	-1938.09229	901.27362	-377.97852	-2122.48706	246.89894	76.40128	-1990.80164	1371.2793	-5.77844	-2643.6604	367.61823	-91.40183	-2160.59082	71.27918	-0.5563	-2104.95483	1562.77759	-77.03933	-2217.96558	1318.73743	5.52447	-2189.54565	26.84713	-69.76709	-2228.58765	1226.41235	-63.54824	-2255.75732	1015.28546	-112.70623	-2280.42896	1020.49414	1.9046	NaN	NaN	NaN	2846.0105	1034.43701	-3357.04395	NaN	NaN	NaN	NaN	NaN	NaN	NaN	NaN	NaN	NaN	NaN	NaN	NaN	NaN	NaN	NaN	NaN	NaN	NaN	NaN	NaN	NaN	NaN	NaN	-2109.96362	1709.28564	14.54783	NaN	NaN	NaN
4	0.03	-2016.07031	24.42658	34.69046	-1959.45154	1414.74866	-170.15091	-1913.39124	1172.97705	-411.04773	-2200.16821	1093.75684	276.75	-1973.31543	902.36707	250.79205	-2128.83032	581.22571	-204.96138	-2178.93237	413.573	-174.18077	-2040.3446	900.38855	253.12086	-2164.2771	1232.72534	247.26801	-2359.13501	402.36139	-175.52811	-2067.5813	923.77313	92.14155	-2565.78345	344.4426	-146.62601	-2614.80103	193.06146	-160.25038	-2053.37524	1395.43579	172.49239	-2015.42273	942.31079	221.55846	-2118.03638	1000.47577	270.18298	-2029.74011	915.05286	-152.10471	-1954.9801	1178.93298	-4.359	-1963.11353	1662.80981	-74.58616	-2105.82349	613.84521	155.82195	-1954.59839	1653.49365	70.99348	-1883.68005	911.37244	-457.93277	-1892.54688	844.04486	-455.09531	-1934.48596	1289.91907	-323.98944	-2045.90564	418.65094	104.27789	-2073.91333	1542.5343	67.36434	-1894.77722	1036.04297	-446.00687	-2080.9939	1451.34912	-27.31648	-1921.82678	903.70746	-412.60025	-2101.52417	246.23306	73.07256	-1956.99292	1364.11975	-3.44736	-2583.45288	370.15399	-89.40728	-2154.43457	73.9823	-2.44946	-2070.84839	1557.31262	-75.46235	-2186.71655	1311.62549	10.03408	-2186.82617	28.82812	-72.08346	-2196.24316	1218.75073	-59.39316	-2223.43066	1007.16168	-112.24424	-2249.76367	1011.75659	2.74488	NaN	NaN	NaN	2846.04956	1034.60986	-3356.98315	NaN	NaN	NaN	NaN	NaN	NaN	NaN	NaN	NaN	NaN	NaN	NaN	NaN	NaN	NaN	NaN	NaN	NaN	NaN	NaN	NaN	NaN	NaN	NaN	-2075.77954	1703.8855	15.51048	NaN	NaN	NaN
5	0.04	-2014.75366	24.25717	34.35966	-1925.10999	1409.07727	-168.69508	-1894.01794	1180.64453	-423.45889	-2145.72095	1081.7041	282.36368	-1904.43616	910.5708	244.73967	-2074.49585	578.21936	-203.181	-2116.29614	408.79901	-173.8829	-1970.65186	902.25037	250.29512	-2119.9939	1223.98169	251.40668	-2293.06738	398.62274	-174.2623	-2041.40662	917.05109	95.48014	-2500.1416	345.65344	-147.31883	-2541.11719	192.88486	-164.36505	-2017.71143	1391.70544	175.15164	-1951.39978	946.33563	217.66158	-2055.98413	994.92767	271.2818	-1996.79675	907.09619	-146.9693	-1921.97815	1170.87305	-0.3308	-1929.01538	1658.29675	-74.25204	-2090.02588	609.21509	151.77193	-1920.46912	1649.65332	71.36458	-1866.86646	921.78375	-487.54733	-1876.82227	854.98883	-489.62137	-1909.37988	1289.72864	-329.88528	-2015.59863	419.24548	103.10868	-2039.55103	1538.47278	68.39396	-1876.42773	1046.44873	-466.68683	-2046.88501	1446.17859	-24.89991	-1903.17542	911.43243	-441.83224	-2086.75464	250.43347	73.6015	-1922.29382	1357.39148	-1.74006	-2521.66064	370.98627	-90.82526	-2151.14233	79.37267	-3.7243	-2034.16711	1551.5769	-73.96889	-2153.7522	1304.66541	13.05586	-2185.03247	29.9553	-72.56824	-2164.50903	1210.52783	-55.47121	-2191.9939	998.05353	-111.56592	-2220.71069	1002.37451	3.81596	NaN	NaN	NaN	2846.07422	1034.42151	-3356.96289	NaN	NaN	NaN	NaN	NaN	NaN	NaN	NaN	NaN	NaN	NaN	NaN	NaN	NaN	NaN	NaN	NaN	NaN	NaN	NaN	NaN	NaN	NaN	NaN	-2041.52551	1699.37891	15.86826	NaN	NaN	NaN
6	0.05	-2015.27051	24.28027	33.9303	-1891.37561	1405.59534	-168.13698	-1876.06848	1193.01135	-435.25955	-2088.948	1073.026	288.3988	-1834.96301	924.34918	236.41495	-2021.40601	578.1416	-200.75363	-2051.97021	408.10449	-171.58708	-1899.81104	910.20374	246.82178	-2075.92236	1217.94922	254.22682	-2225.53052	395.89566	-172.82814	-2013.58435	909.71033	99.7379	-2432.01294	343.59573	-149.3111	-2462.29907	188.97293	-166.7603	-1981.36853	1389.45679	176.52306	-1886.90137	955.12878	212.53078	-1991.96289	994.24719	272.15076	-1966.29321	899.1048	-140.46024	-1888.9021	1164.49023	4.24529	-1894.40063	1654.55151	-74.50575	-2067.57617	607.51544	150.83032	-1886	1646.87463	71.11607	-1850.52686	937.19531	-513.66522	-1860.79883	869.78485	-518.89825	-1889.58643	1295.61157	-337.13052	-1991.86487	416.85181	101.81941	-2004.85059	1535.34106	68.75232	-1857.64331	1060.49341	-484.97974	-2012.95288	1442.78333	-23.30169	-1883.91187	924.02222	-466.39346	-2079.7439	251.22017	72.96477	-1887.31885	1351.66919	-0.84384	-2458.11987	368.45291	-94.83056	-2150.91382	78.98912	-4.49605	-2001.55078	1548.33862	-74.09497	-2120.67969	1301.15259	15.6954	-2186.11841	29.55171	-72.33961	-2132.20215	1204.2948	-52.00689	-2161.20654	987.92529	-110.24071	-2192.65112	992.47217	5.06521	NaN	NaN	NaN	2846.1377	1034.48206	-3356.93726	NaN	NaN	NaN	NaN	NaN	NaN	NaN	NaN	NaN	NaN	NaN	NaN	NaN	NaN	NaN	NaN	NaN	NaN	NaN	NaN	NaN	NaN	NaN	NaN	-2007.4054	1695.88721	15.3448	NaN	NaN	NaN
